# xmcd
#
# Track frame offsets: 
#        150
#        9682
#        19500
#        38186
#        50435
#        60984
#        71732
#        92410
#        99670
#        109026
#        124644
#        135606
#        148228
#        159492
#        171446
#        184323
#
# Disc length: 2610 seconds
#
# Revision: 1
# Processed by: cddbd v1.5.2PL0 Copyright (c) Steve Scherf et al.
# Submitted via: ExactAudioCopyFreeDBPlugin 1.0
#
DISCID=da0a3010
DTITLE=Various Artist - Country Classics SIGNCD2092
DYEAR=2002
DGENRE=Country
TTITLE0=Willie Nelson - Building Heartaches
TTITLE1=Dolly Parton - Release Me
TTITLE2=Blackwater Band - Lighthouse Bar
TTITLE3=Waylon Jennings - Don't Think Twice, It's Alright
TTITLE4=Carl Perkins - What Am I Living For?
TTITLE5=Dolly Parton - (It Wasn't God Who Made) Honky Tonk Angels
TTITLE6=Gram Parsons and Emmylou Harris - Love Hurts
TTITLE7=Conway Twitty - Treat Me Mean, Treat Me Cruel
TTITLE8=George Jones - World's Worst Loser
TTITLE9=Gene Parsons - Way Out There
TTITLE10=Stonewall Jackson - Let the Sun Shine On the People
TTITLE11=Johnny Paycheck - Georgia in a Jug
TTITLE12=Waylon Jennings - Sally Was a Good Old Girl
TTITLE13=Conway Twitty - You Made Me What I Am
TTITLE14=Nashville West - By the Time I Get to Phoenix
TTITLE15=Patsy Cline - I've Loved and Lost Again
EXTD=Cat: SIGNCD2092 Bar: 5022508209247
EXTT0=
EXTT1=
EXTT2=
EXTT3=
EXTT4=
EXTT5=
EXTT6=
EXTT7=
EXTT8=
EXTT9=
EXTT10=
EXTT11=
EXTT12=
EXTT13=
EXTT14=
EXTT15=
PLAYORDER=
